<svg version="1.1" xmlns="http://www.w3.org/2000/svg" xmlns:xlink="http://www.w3.org/1999/xlink" width="364.69999" height="262.33333" viewBox="0,0,364.69999,262.33333"><g transform="translate(-31.23079,-37)"><g data-paper-data="{&quot;isPaintingLayer&quot;:true}" fill="#000000" fill-rule="nonzero" stroke="none" stroke-width="1" stroke-linecap="butt" stroke-linejoin="miter" stroke-miterlimit="10" stroke-dasharray="" stroke-dashoffset="0" style="mix-blend-mode: normal"><path d="M175.91412,80l22.51666,13v26l-22.51666,13l-22.51666,-13v-26z"/><path d="M201.24746,121.66667l22.51666,13v26l-22.51666,13l-22.51666,-13v-26z"/><path d="M225.24746,80l22.51666,13v26l-22.51666,13l-22.51666,-13v-26z"/><path d="M250.58079,121.66667l22.51666,13v26l-22.51666,13l-22.51666,-13v-26z"/><path d="M248.24746,38l22.51666,13v26l-22.51666,13l-22.51666,-13v-26z"/><path d="M273.58079,79.66666l22.51666,13v26l-22.51666,13l-22.51666,-13v-26z"/><path d="M297.58079,38l22.51666,13v26l-22.51666,13l-22.51666,-13v-26z"/><path d="M322.91413,79.66666l22.51666,13v26l-22.51666,13l-22.51666,-13v-26z"/><path d="M225.91412,163.33334l22.51666,13v26l-22.51666,13l-22.51666,-13v-26z"/><path d="M251.24746,205l22.51666,13v26l-22.51666,13l-22.51666,-13v-26z"/><path d="M275.24746,163.33334l22.51666,13v26l-22.51666,13l-22.51666,-13v-26z"/><path d="M300.58079,205l22.51666,13v26l-22.51666,13l-22.51666,-13v-26z"/><path d="M298.24746,121.33334l22.51666,13v26l-22.51666,13l-22.51666,-13v-26z"/><path d="M323.58079,163l22.51666,13v26l-22.51666,13l-22.51666,-13v-26z"/><path d="M56.58079,205.66667l22.51666,13v26l-22.51666,13l-22.51666,-13v-26z"/><path d="M80.58079,164l22.51666,13v26l-22.51666,13l-22.51666,-13v-26z"/><path d="M105.91413,205.66667l22.51666,13v26l-22.51666,13l-22.51666,-13v-26z"/><path d="M103.58079,122l22.51666,13v26l-22.51666,13l-22.51666,-13v-26z"/><path d="M128.91413,163.66667l22.51666,13v26l-22.51666,13l-22.51666,-13v-26z"/><path d="M152.91413,122l22.51666,13v26l-22.51666,13l-22.51666,-13v-26z"/><path d="M178.24746,163.66667l22.51666,13v26l-22.51666,13l-22.51666,-13v-26z"/><path d="M81.24746,247.33334l22.51666,13v26l-22.51666,13l-22.51666,-13v-26z"/><path d="M152.58079,37l22.51666,13v26l-22.51666,13l-22.51666,-13v-26z"/><path d="M130.58079,247.33334l22.51666,13v26l-22.51666,13l-22.51666,-13v-26z"/><path d="M201.91413,37l22.51666,13v26l-22.51666,13l-22.51666,-13v-26z"/><path d="M153.58079,205.33334l22.51666,13v26l-22.51666,13l-22.51666,-13v-26z"/><path d="M178.91413,247l22.51666,13v26l-22.51666,13l-22.51666,-13v-26z"/><path d="M202.91413,205.33334l22.51666,13v26l-22.51666,13l-22.51666,-13v-26z"/><path d="M228.24746,247l22.51666,13v26l-22.51666,13l-22.51666,-13v-26z"/><path d="M53.74746,38.5l22.51666,13v26l-22.51666,13l-22.51666,-13v-26z"/><path d="M79.08079,80.16666l22.51666,13v26l-22.51666,13l-22.51666,-13v-26z"/><path d="M103.08079,38.5l22.51666,13v26l-22.51666,13l-22.51666,-13v-26z"/><path d="M128.41413,80.16666l22.51666,13v26l-22.51666,13l-22.51666,-13v-26z"/><path d="M55.24746,122l22.51666,13v26l-22.51666,13l-22.51666,-13v-26z"/><path d="M275.41412,247.16667l22.51666,13v26l-22.51666,13l-22.51666,-13v-26z"/><path d="M324.74746,247.16667l22.51666,13v26l-22.51666,13l-22.51666,-13v-26z"/><path d="M346.24746,38l22.51666,13v26l-22.51666,13l-22.51666,-13v-26z"/><path d="M371.58079,79.66666l22.51666,13v26l-22.51666,13l-22.51666,-13v-26z"/><path d="M349.24746,205l22.51666,13v26l-22.51666,13l-22.51666,-13v-26z"/><path d="M346.91412,121.33334l22.51666,13v26l-22.51666,13l-22.51666,-13v-26z"/><path d="M371.74746,162l22.51666,13v26l-22.51666,13l-22.51666,-13v-26z"/><path d="M373.41412,247.16667l22.51666,13v26l-22.51666,13l-22.51666,-13v-26z"/></g></g></svg>